<?xml version="1.0" encoding="utf-8"?>
<!-- Generator: Adobe Illustrator 16.0.0, SVG Export Plug-In . SVG Version: 6.00 Build 0)  -->
<!DOCTYPE svg PUBLIC "-//W3C//DTD SVG 1.1//EN" "http://www.w3.org/Graphics/SVG/1.1/DTD/svg11.dtd">
<svg version="1.1" id="Layer_1" xmlns="http://www.w3.org/2000/svg" xmlns:xlink="http://www.w3.org/1999/xlink" x="0px" y="0px"
	 width="1026.39px" height="652.966px" viewBox="0 0 1026.39 652.966" enable-background="new 0 0 1026.39 652.966"
	 xml:space="preserve">
<g>
	<path fill-rule="evenodd" clip-rule="evenodd" fill="#F0D8BF" d="M81.19,39.036c37.93-2.359,75.697-6.39,113.488-10.242
		c27.026-2.756,54.146-4.646,81.205-7.125c28.497-2.608,56.925-6.186,85.474-7.946c18.622-1.149,37.482-2.413,56.104,1.184
		c0.001,1.996-0.261,4.029,0.048,5.977c2.079,13.152,4.114,26.316,6.498,39.418c1.782,9.797,0.708,11.296-9.097,9.161
		c-16.102-3.512-32.363-4.72-48.839-5.057c-37.365-0.759-74.433,2.401-111.394,7.09c-23.473,2.978-46.819,6.91-70.318,9.646
		c-27.295,3.178-54.555,6.676-81.914,9.43c-12.838,1.297-25.783,0.013-38.541,2.79c-9.905,2.161-4.255,9.026-5.256,13.69
		c-1.191,5.554,3.328,5.472,7.367,5.436c15.587-0.133,30.849-2.983,46.187-5.139c37.04-5.205,74.132-10.115,111.065-15.952
		c31.785-5.023,63.672-9.429,95.77-11.136c28.989-1.543,58.086-0.973,86.833,4.82c17.561,3.539,21.181,6.305,24.605,23.288
		c0.056,0.276,0.204,0.536,0.287,0.807c2.03,6.801-1.046,7.287-6.865,5.676c-18.412-5.085-37.276-7.25-56.397-7.551
		c-32.032-0.501-63.925,0.976-95.727,5.005c-26.68,3.376-53.505,5.687-80.191,9.01c-30.752,3.829-61.479,7.648-92.377,10.398
		c-11.657,1.04-23.364,0.71-35.043,2.244c-11.25,1.48-6.654,8.618-7.305,13.883c-0.876,7.083,4.775,5.788,8.954,5.679
		c26.992-0.7,53.564-5.381,80.178-9.014c30.963-4.229,61.796-9.438,92.789-13.63c29.893-4.046,59.799-7.668,89.999-8.057
		c17.612-0.23,35.271-0.945,52.824,1.624c16.268,2.378,32.259,5.647,47.603,11.645c4.788,1.868,6.813,5.213,7.435,9.62
		c0.635,4.479,0.258,9.02,1.688,13.504c1.058,3.32-0.682,4.793-4.397,3.133c-13.511-6.033-27.813-8.017-42.596-9.302
		c-30.892-2.688-61.672-1.356-92.393,1.011c-21.825,1.688-43.492,5.303-65.236,8.012c-24.367,3.034-48.778,5.759-73.103,9.08
		c-27.834,3.801-55.681,7.376-83.818,7.973c-5.081,0.105-10.036,0.771-14.756,2.047c-6.762,1.824-2.646,7.667-3.443,11.666
		c-0.671,3.367,1.104,5.378,4.979,5.258c7.351-0.229,14.789,0.278,22.038-0.637c23.187-2.935,46.308-6.356,69.446-9.638
		c29.506-4.183,59.002-8.429,88.51-12.623c25.773-3.664,51.677-6.556,77.669-7.696c21.398-0.937,42.956-1.373,64.296,1.547
		c17.427,2.383,34.743,5.406,50.669,13.295c2.898,1.432,5.93,2.561,6.499,6.293c1.01,6.637,2.144,13.253,3.378,20.813
		c-2.787-0.99-4.421-1.475-5.977-2.13c-19.316-8.194-39.538-12.255-60.597-12.702c-40.273-0.848-80.34,1.178-120.256,6.71
		c-25.763,3.57-51.698,5.958-77.51,9.208c-24.943,3.147-49.945,5.724-74.936,8.428c-13.748,1.488-27.5,0.549-41.228,2.442
		c-11.39,1.568-6.308,8.965-6.924,14.118c-0.867,7.247,5.308,5.41,9.222,5.266c26.076-0.969,51.734-5.65,77.554-8.79
		c28.988-3.525,57.723-8.967,86.646-13.055c34.209-4.835,68.526-8.894,103.192-8.885c15.566,0.004,31.122-0.343,46.646,1.648
		c19.02,2.442,37.547,6.514,54.853,14.656c13.902,6.539,18.361,16.791,14.636,32.355c-10.887-7.852-23.007-12.781-36.079-15.354
		c-7.726-1.519-15.541-2.916-23.384-3.527c-16.959-1.318-33.928-3.519-50.985-2.231c-31.211,2.352-62.468,4.167-93.532,8.286
		c-25.786,3.418-51.722,5.782-77.536,9.032c-30.491,3.84-60.957,7.773-91.762,8.162c-4.74,0.059-9.302,0.867-13.951,1.501
		c-10.345,1.407-4.456,8.818-5.527,13.44c-1.244,5.37,2.917,5.563,7.141,5.726c15.639,0.595,31.037-2.088,46.381-3.915
		c41.487-4.927,82.808-11.186,124.195-16.897c40.688-5.615,81.486-9.481,122.685-8.445c24.248,0.611,47.837,4.341,70.637,12.284
		c21.87,7.625,29.424,17.546,29.492,38.085c-1.187-0.345-2.522-0.368-3.329-1.013c-14.542-11.591-31.583-16.492-49.946-19.278
		c-25.203-3.826-50.537-3.643-75.651-2.087c-26.209,1.627-52.479,3.854-78.525,7.903c-24.526,3.813-49.19,6.872-73.861,9.734
		c-23.523,2.729-47.049,5.475-70.616,7.879c-13.729,1.404-27.479,0.866-41.214,2.508c-11.547,1.382-6.692,8.479-7.438,13.618
		c-1.026,7.071,4.659,5.856,8.851,5.732c27.562-0.838,54.751-5.28,81.956-8.959c30.39-4.107,60.586-9.592,91.019-13.618
		c30.478-4.031,60.917-7.633,91.741-8.583c11.718-0.358,23.302-0.177,34.948,0.354c20.849,0.958,41.742,2.445,61.072,10.675
		c31.256,13.301,40.216,20.927,38.795,49.289c-5.393-5.972-11.284-11.349-18.18-15.756c-15.675-10.023-33.356-12.772-51.524-15.569
		c-29.653-4.567-59.238-2.84-88.662-0.619c-24.423,1.844-48.914,4.094-73.239,7.699c-26.29,3.902-52.897,5.741-79.269,9.168
		c-26.447,3.436-52.914,6.124-79.607,6.518c-3.803,0.056-7.557,0.29-11.378,0.842c-10.831,1.564-5.893,9.408-6.465,14.71
		c-0.717,6.658,5.031,5.003,8.728,4.912c21.693-0.559,43.041-4.415,64.563-6.529c27.677-2.721,55.072-7.292,82.503-11.32
		c33.013-4.855,66.088-9.123,99.336-10.827c28.382-1.46,56.986-1.718,85.295,3.024c23.902,4.01,45.418,11.128,62.566,28.91
		c1.074,1.114,2.829,2.996,3.829,1.747c0-5.568,0-11.262,0-16.953c5,2.371,3.872,5.515,4.128,8.539
		c2.683,31.863,8.511,63.409,13.432,94.95c7.753,49.729,15.02,99.551,22.447,149.322c0.857,5.746,3.478,10.322,8.652,9.771
		c4.391-0.469,1.648-6.191,2.05-9.588c-0.397-9.664-0.973-19.322-1.137-28.987c-1.182-69.505,0.285-139.015-1.746-208.524
		c-1.824-62.359,0.096-124.771-1.702-187.166c-1.37-47.563-0.459-95.188-0.565-142.782c12.854-17.089,31.309-26.16,51.097-33.144
		c17.999-6.35,36.548-9.648,55.814-10.403c35.787-1.399,71.181,3.124,106.756,4.892c24.013,1.196,47.834,3.859,71.744,5.779
		c27.666,2.22,55.243,5.461,82.877,8.102c20.373,1.951,40.78,3.583,61.163,5.481c17.458,1.627,34.891,3.554,52.36,5.073
		c4.826,0.42,4.762,3.249,4.673,6.52c0.112,2.591-0.99,5.358,1.208,7.64c-0.375,3.664-1.016,7.325-1.082,10.994
		c-0.892,49.862,0.308,99.732-1.603,149.607c-1.836,47.83,0.074,95.727-1.741,143.606c-1.879,49.541,0.374,99.162-1.819,148.743
		c-1.13,25.623-0.348,51.322-0.438,76.99c-0.04,11.976-0.069,23.952-0.17,35.93c-0.029,3.464,0.364,6.74-5.504,6.229
		c-32.448-2.84-64.954-5.082-97.395-7.99c-43.278-3.877-86.624-6.559-130.042-8.349c-29.654-1.217-59.285-2.548-88.892,0.66
		c-1.05,0.021-2.097,0.042-3.147,0.063c-2.441-0.66-4.878-0.747-7.315,0.009c-16.471,0.523-32.839,2.159-49.096,4.69
		c-28.811,4.485-56.977,11.146-83.203,24.052c-7.22,4.576-14.491,3.699-21.791,0.211c-60.334-20.987-122.433-26.222-185.753-18.688
		c-60.933,7.254-122.065,12.543-183.124,18.583c-9.35,0.688-18.701,1.381-28.054,2.07c-27.803,2.039-55.576,4.673-83.517,3.992
		c-0.104-0.518-0.314-0.99-0.627-1.425c0.158-5.11,0.51-10.225,0.444-15.337c-1.271-98.86-0.129-197.729-1.865-296.594
		c-1.375-78.361-0.433-156.753-0.796-235.13c-0.059-12.772,1.148-25.612-1.018-38.343c2.169-4.772,6.657-4.585,11.004-4.993
		C48.525,42.502,65.018,42.242,81.19,39.036z M470.229,554.712c0.44-11.653,2.254-21.371-6.537-28.421
		c-10.218-8.2-20.943-15.465-34.259-18.512c-9.971-2.285-19.835-5.323-30.066-5.86c-17.843-0.935-35.661-3.845-53.557-2.261
		c-30.855,2.734-61.878,3.5-92.578,8.147c-21.347,3.232-42.855,5.491-64.324,7.933c-28.439,3.236-56.984,5.706-85.333,9.545
		c-13.117,1.778-26.352,0.205-39.39,2.874c-4.548,0.929-5.638,2.497-5.77,6.585c-0.407,12.624-0.564,12.636,12.672,12.574
		c5-0.023,10.099,0.437,14.988-0.32c23.36-3.615,46.859-6.317,70.266-9.588c36.129-5.047,72.174-10.704,108.503-14.623
		c34.713-3.744,69.367-7.678,104.268-5.966c17.121,0.843,34.367,2.829,51.013,7.747C438.93,530.119,455.541,539.141,470.229,554.712
		z M468.35,422.182c0.665-10.857,2.396-20.596-6.555-27.831c-9.972-8.062-20.616-14.872-33.442-18.371
		c-10.771-2.938-21.583-5.413-32.71-5.982c-16.987-0.868-33.955-3.808-50.97-2.249c-31.164,2.855-62.503,3.456-93.553,8.123
		c-26.279,3.953-52.895,5.761-79.275,9.151c-32.244,4.139-64.502,7.832-97.067,8.204c-15.601,0.176-17.201,1.875-16.412,16.375
		c0.243,4.416,1.769,6.266,6.309,5.912c11.385-0.884,22.838-1.213,34.153-2.612c17.682-2.187,35.262-5.155,52.905-7.646
		c29.807-4.208,59.632-8.304,89.448-12.438c27.529-3.821,55.188-6.805,82.942-7.896c20.214-0.797,40.573-1.451,60.773,1.465
		c25.09,3.619,49.868,8.064,70.275,24.283C459.398,414.032,463.31,417.759,468.35,422.182z M559.411,291.77
		c5.864-4.967,10.566-9.65,15.962-13.4c24.835-17.27,53.802-21.98,83.227-23.558c25.81-1.383,51.734-0.424,77.545,1.563
		c7.27,0.559,14.48,1.823,21.709,2.832c21.415,2.99,42.749,6.746,64.256,8.839c25.337,2.466,50.326,7.198,75.594,9.815
		c20.06,2.078,39.885,6.651,60.256,5.854c3.951-0.152,8.575,0.264,7.469-5.369c-0.95-4.854,4.789-12.576-6.068-13.767
		c-24.71-2.707-49.566-3.722-74.324-6.006c-35.569-3.279-70.66-9.558-106.148-13.289c-35.28-3.708-70.622-5.301-105.938-7.823
		c-10.308-0.737-20.492,0.939-30.729,1.603c-17.03,1.105-34.316,2.25-49.834,9.161C564.7,260.551,555.611,267.82,559.411,291.77z
		 M559.723,334.576c1.857-1.568,3.06-2.382,4.009-3.415c15.467-16.805,36.204-24.492,57.94-28.27
		c26.436-4.599,53.321-5.909,80.357-4.104c10.215,0.683,20.554,1.122,30.647,2.346c33.61,4.082,66.918,10.149,100.672,13.583
		c31.349,3.191,62.392,9.102,93.677,12.994c10.39,1.29,20.891,2.858,31.549,2.322c6.271-0.318,7.577-3.626,6.895-8.416
		c-0.577-4.046,3.269-10.381-5.634-10.706c-5.232-0.19-10.308-1.926-15.692-1.614c-17.958,1.043-35.695-2.204-53.404-3.911
		c-40.686-3.921-81.113-10.215-121.689-15.236c-40.474-5.006-80.9-9.249-121.733-8.134c-21.783,0.595-43.472,3.135-63.125,12.818
		C567.468,303.075,554.651,312.094,559.723,334.576z M559.801,377.744c7.839-7.71,15.116-14.201,23.991-18.86
		c20.561-10.796,42.983-15.744,65.818-16.624c39.563-1.528,79.182-1.03,118.43,5.703c16.966,2.908,33.99,6.196,51.125,7.3
		c20.813,1.338,41.041,5.953,61.669,8.041c24.412,2.471,48.505,7.729,73.2,7.688c11.683-0.022,11.053-0.022,11.708-11.007
		c0.667-11.251-8.646-9.179-13.782-9.187c-29.101-0.056-57.739-4.543-86.577-7.078c-29.133-2.556-57.895-7.67-86.889-11.168
		c-32.888-3.966-65.927-4.57-98.813-7.717c-14.668-1.404-29.351,0.584-43.925,1.854c-16.293,1.424-32.741,3.441-47.67,10.646
		C569.608,346.262,554.466,355.537,559.801,377.744z M559.689,551.691c20.973-16.89,22.883-21.822,64.195-30.989
		c9.032-2.004,18.077-1.723,27.038-2.947c18.495-2.528,37.098-1.948,55.486-0.757c24.474,1.589,48.849,4.87,73.23,7.808
		c30.774,3.715,61.256,9.12,91.968,13.158c27.824,3.659,55.442,8.832,83.64,9.424c5.378,0.115,9.367-0.262,8.661-7.082
		c-0.607-5.902,2.156-13.542-8.353-13.473c-33.225,0.221-65.932-4.981-98.826-8.428c-25.02-2.618-49.958-6.062-74.809-9.508
		c-37.5-5.209-75.172-6.924-112.828-9.331c-14.305-0.917-28.609,1.676-42.891,3.106c-19.003,1.898-36.651,6.744-52.708,17.344
		C561.752,527.766,556.259,537.228,559.689,551.691z M559.899,160.623c16.918-19.227,38.645-27.872,61.935-32.388
		c33.253-6.447,67.069-6.286,100.703-3.377c8.69,0.752,17.493,0.782,26.217,2.22c21.613,3.566,43.284,7.406,65.1,9.035
		c29.538,2.205,58.417,8.393,87.777,11.544c18.599,1.995,37.045,5.31,55.805,5.856c2.539,0.071,6.221,1.108,7.28-1.558
		c1.92-4.82,1.743-10.326,0.249-15.118c-1.045-3.34-5.681-3.745-9.163-3.73c-28.506,0.083-56.675-3.542-84.871-6.922
		c-29.599-3.546-59.321-6.317-88.777-10.752c-32.801-4.937-65.8-6.656-98.844-7.985c-16.123-0.652-32.304-0.64-48.401,1.548
		c-21.562,2.93-42.775,6.131-61.336,18.853C561.989,135.792,556.216,145.069,559.899,160.623z M469.63,508.484
		c0.113-6.579,3.384-13.394-1.289-18.61c-8.496-9.484-17.914-17.746-30.756-22.1c-16.468-5.591-33.183-8.279-50.543-9.958
		c-28.569-2.762-56.938-0.919-85.284,0.888c-23.872,1.525-47.583,5.376-71.378,8.085c-26.415,3.008-52.846,5.895-79.272,8.818
		c-25.863,2.863-51.632,6.831-77.766,6.6c-3.924-0.034-7.535,0.975-11.26,1.738c-1.918,0.394-2.949,1.287-3.539,3.197
		c-3.32,10.761,0.412,15.748,11.94,15.645c2.641-0.023,5.3-0.091,7.916-0.417c21.44-2.67,42.89-5.279,64.301-8.159
		c26.913-3.624,53.754-7.761,80.693-11.178c26.946-3.423,53.907-7.526,80.992-8.887c20.658-1.036,41.347-3.507,62.345-0.875
		c16.212,2.032,32.644,2.761,48.614,6.389C435.975,484.35,454.505,493.057,469.63,508.484z M559.614,421.706
		c5.672-4.799,10.415-9.436,15.78-13.243c25.029-17.753,54.493-21.865,84.132-23.442c20.158-1.075,40.47-0.795,60.795,0.986
		c17.49,1.535,35.028,1.937,52.328,5.457c10.858,2.213,21.864,4.064,32.902,5.049c32.074,2.849,63.58,9.431,95.499,13.146
		c18.283,2.129,36.387,6.076,54.947,5.845c3.813-0.048,8.932,0.554,7.594-5.13c-1.25-5.309,5.902-14.259-5.833-15.513
		c-25.006-2.671-50.128-4.413-75.183-6.299c-30.709-2.311-60.979-7.336-91.373-11.346c-34.643-4.573-69.436-5.665-104.185-7.753
		c-17.844-1.069-35.826-0.662-53.699,1.468c-17.263,2.056-34.401,4.733-49.75,13.05C568.97,391.887,554.726,400.617,559.614,421.706
		z M559.75,248.106c10.736-12.15,22.577-20.293,36.542-25.398c13.476-4.929,27.294-7.786,41.665-9.828
		c38.497-5.469,76.624-2.818,114.781,1.917c20.873,2.584,41.558,7.056,62.495,8.661c29.236,2.24,57.882,7.982,86.871,11.58
		c18.568,2.304,37.046,5.36,55.813,5.775c2.687,0.059,5.954,1.141,7.47-2.689c3.792-9.572-0.65-17.706-11.053-17.569
		c-29.443,0.383-58.417-3.905-87.501-7.13c-24.396-2.705-48.729-5.933-73.092-8.907c-22.331-2.729-44.611-5.896-67.001-8.02
		c-25.767-2.441-51.679-1.739-77.546-1.978c-20.872-0.194-41.342,2.742-60.103,10.921
		C563.576,216.568,555.583,224.27,559.75,248.106z M468.333,467.21c0.622-11.197,2.541-20.822-6.116-27.899
		c-7.614-6.226-15.46-12.092-25.078-15.544c-13.581-4.87-27.38-7.494-41.88-8.784c-24.729-2.202-49.516-2.258-74.035-0.555
		c-24.419,1.693-48.938,3.85-73.237,7.699c-24.229,3.832-48.775,5.752-73.071,9.241c-24.318,3.494-48.819,5.316-73.159,8.378
		c-12.025,1.512-24.025,0.649-35.985,2.087c-9.76,1.17-7.163,7.846-7.23,13.363c-0.083,6.731,5.382,4.758,9.017,4.746
		c28.217-0.097,55.937-5.233,83.707-8.989c41.109-5.557,81.976-12.77,123.326-16.757c33.836-3.265,67.532-6.475,101.728-3.598
		C410.542,433.479,442.431,440.391,468.333,467.21z M559.825,510.025c10.042-11.585,21.193-19.27,34.113-24.483
		c17.194-6.934,35.156-10.168,53.676-12.141c35.031-3.732,69.835-0.971,104.479,2.796c23.19,2.522,46.424,5.248,69.489,9.225
		c30.204,5.211,60.639,9.273,91.088,12.967c14.486,1.758,28.835,5.362,43.623,4.405c2.495-0.164,5.391,0.873,7.082-2.063
		c4.26-7.393-0.529-17.094-9.213-18.214c-3.48-0.447-7.068-0.393-10.587-0.211c-13.562,0.694-26.96-1.438-40.39-2.427
		c-18.051-1.331-35.999-3.997-53.975-6.198c-20.017-2.452-40.11-4.468-59.994-7.681c-29.493-4.765-59.195-7.502-88.961-9.209
		c-19.377-1.114-38.913-0.91-58.313-0.026c-19.013,0.864-38.258,2.688-55.457,11.492
		C561.606,480.991,556.05,487.208,559.825,510.025z M559.706,202.489c1.449-1.091,2.634-1.805,3.601-2.74
		c11.453-11.066,24.828-18.906,40.396-23.41c14.955-4.32,30.154-6.352,45.71-7.758c32.966-2.975,65.583-0.918,98.168,3.447
		c24.902,3.336,49.653,8.142,74.653,10.303c30.059,2.596,59.585,8.343,89.47,11.844c15.706,1.839,31.322,4.492,47.232,3.905
		c2.881-0.104,6.364,0.507,6.538-3.747c0.482-11.906,1.375-15.57-11.827-15.068c-19.731,0.758-39.221-2.108-58.74-3.962
		c-20.63-1.954-41.104-5.426-61.675-8.038c-24.347-3.089-48.835-5.311-73.056-9.142c-22.318-3.534-44.784-5.283-67.243-6.001
		c-21.383-0.685-42.851-1.334-64.306,1.223c-20.077,2.396-39.002,6.724-56,18.082C561.149,179.098,556.507,188.595,559.706,202.489z
		 M559.721,115.179c5.108-4.232,9.349-8.161,14.02-11.542c18.212-13.19,39.359-17.766,61.476-20.905
		c36.12-5.124,71.919-2.97,107.73,1.636c20.561,2.645,40.911,7.711,61.525,8.899c33.729,1.942,66.424,10.046,99.849,13.369
		c17.741,1.761,35.159,6.191,53.146,5.86c4.214-0.081,9.199,0.484,7.977-5.732c-0.94-4.787,4.837-12.538-6.489-13.349
		c-25.952-1.858-51.894-4.029-77.764-6.738c-24.694-2.585-49.31-5.906-73.933-9.094c-23.748-3.075-47.373-7.385-71.211-9.354
		c-29.5-2.441-59.071-4.974-88.79-3.752c-21.832,0.896-43.454,3.358-63.118,12.969C567.47,85.585,554.763,94.356,559.721,115.179z
		 M559.916,464.632c12.677-11.999,26.325-21.386,43.089-26.124c15.254-4.31,30.669-6.521,46.51-8.086
		c33.889-3.359,67.514-0.72,100.899,3.131c26.044,3.005,52.058,7.079,78.049,10.91c32.633,4.812,65.364,8.989,98.038,13.538
		c10.191,1.419,20.374,2.531,30.685,1.998c2.246-0.114,4.722,0.532,6.198-2.068c4.1-7.227-0.578-16.189-9.096-16.632
		c-8.224-0.433-16.555,0.417-24.715-0.424c-23.824-2.449-47.602-5.345-71.367-8.281c-28.119-3.476-56.319-6.534-84.283-10.961
		c-26.635-4.213-53.472-6.189-80.289-7.523c-21.924-1.088-44.032-1.492-66.042,1.227c-15.547,1.916-30.856,4.559-44.634,11.838
		C568.489,434.823,554.23,443.326,559.916,464.632z"/>
	<path fill-rule="evenodd" clip-rule="evenodd" fill="#D8BBAB" d="M516.217,611.965c-0.403,3.396,2.386,9.119-2.004,9.588
		c-5.174,0.552-7.703-4.024-8.562-9.771c-7.426-49.771-14.509-99.593-22.264-149.322c-4.92-31.541-10.382-63.087-13.065-94.95
		c-0.255-3.024-1-6.168-3.395-8.539l0.039,0.044c1.421-28.362-7.539-35.988-38.795-49.289c-19.33-8.229-40.223-9.717-61.072-10.675
		c-11.646-0.531-23.23-0.713-34.948-0.354c-30.824,0.95-61.263,4.552-91.741,8.583c-30.433,4.026-60.629,9.511-91.019,13.618
		c-27.205,3.679-54.395,8.121-81.956,8.959c-4.192,0.124-9.877,1.339-8.851-5.732c0.745-5.14-4.11-12.236,7.438-13.618
		c13.735-1.642,27.486-1.104,41.214-2.508c23.567-2.404,47.093-5.15,70.616-7.879c24.671-2.862,49.334-5.921,73.861-9.734
		c26.046-4.049,52.316-6.276,78.525-7.903c25.115-1.556,50.448-1.739,75.651,2.087c18.364,2.786,35.404,7.688,49.946,19.278
		c0.807,0.645,2.142,0.668,3.329,1.013c-0.068-20.539-7.623-30.46-29.492-38.085c-22.8-7.943-46.389-11.673-70.637-12.284
		c-41.198-1.036-81.996,2.83-122.685,8.445c-41.387,5.712-82.708,11.971-124.195,16.897c-15.344,1.827-30.742,4.51-46.381,3.915
		c-4.224-0.163-8.385-0.355-7.141-5.726c1.072-4.622-4.817-12.033,5.527-13.44c4.649-0.634,9.21-1.442,13.951-1.501
		c30.805-0.389,61.271-4.322,91.762-8.162c25.814-3.25,51.75-5.614,77.536-9.032c31.064-4.119,62.321-5.935,93.532-8.286
		c17.057-1.287,34.026,0.913,50.985,2.231c7.843,0.611,15.658,2.009,23.384,3.527c13.071,2.572,25.191,7.502,36.079,15.354
		c3.725-15.564-0.734-25.816-14.636-32.355c-17.306-8.143-35.833-12.214-54.853-14.656c-15.525-1.991-31.08-1.645-46.646-1.648
		c-34.667-0.009-68.983,4.05-103.192,8.885c-28.923,4.088-57.658,9.529-86.646,13.055c-25.819,3.14-51.478,7.821-77.554,8.79
		c-3.915,0.145-10.089,1.981-9.222-5.266c0.616-5.153-4.466-12.55,6.924-14.118c13.728-1.894,27.48-0.954,41.228-2.442
		c24.991-2.704,49.993-5.28,74.936-8.428c25.812-3.25,51.747-5.638,77.51-9.208c39.916-5.532,79.983-7.558,120.256-6.71
		c21.059,0.447,41.28,4.508,60.597,12.702c1.556,0.655,3.19,1.14,5.977,2.13c-1.234-7.561-2.368-14.177-3.378-20.813
		c-0.568-3.732-3.6-4.861-6.499-6.293c-15.926-7.889-33.242-10.912-50.669-13.295c-21.34-2.92-42.897-2.483-64.296-1.547
		c-25.992,1.141-51.896,4.032-77.669,7.696c-29.507,4.194-59.003,8.44-88.51,12.623c-23.139,3.281-46.26,6.703-69.446,9.638
		c-7.249,0.915-14.687,0.408-22.038,0.637c-3.875,0.12-5.65-1.891-4.979-5.258c0.798-3.999-3.319-9.842,3.443-11.666
		c4.721-1.275,9.675-1.941,14.756-2.047c28.137-0.597,55.984-4.172,83.818-7.973c24.324-3.321,48.735-6.046,73.103-9.08
		c21.744-2.709,43.411-6.324,65.236-8.012c30.72-2.367,61.5-3.699,92.393-1.011c14.782,1.285,29.085,3.269,42.596,9.302
		c3.715,1.66,5.455,0.188,4.397-3.133c-1.431-4.484-1.053-9.025-1.688-13.504c-0.622-4.407-2.646-7.751-7.435-9.62
		c-15.344-5.998-31.335-9.266-47.603-11.645c-17.553-2.569-35.212-1.854-52.824-1.624c-30.199,0.389-60.106,4.011-89.999,8.057
		c-30.993,4.192-61.826,9.401-92.789,13.63c-26.614,3.633-53.187,8.314-80.178,9.014c-4.179,0.109-9.83,1.404-8.954-5.679
		c0.651-5.266-3.945-12.403,7.305-13.883c11.679-1.534,23.386-1.205,35.043-2.244c30.898-2.75,61.625-6.569,92.377-10.398
		c26.686-3.323,53.511-5.634,80.191-9.01c31.801-4.029,63.694-5.506,95.727-5.005c19.121,0.301,37.985,2.466,56.397,7.551
		c5.818,1.61,8.895,1.125,6.865-5.676c-0.083-0.271-0.231-0.531-0.287-0.807c-3.424-16.982-7.044-19.749-24.605-23.288
		c-28.747-5.793-57.844-6.364-86.833-4.82c-32.098,1.707-63.985,6.113-95.77,11.136c-36.933,5.837-74.025,10.747-111.065,15.952
		c-15.338,2.155-30.6,5.006-46.187,5.139c-4.039,0.036-8.558,0.118-7.367-5.436c1.001-4.665-4.649-11.53,5.256-13.69
		c12.758-2.777,25.703-1.493,38.541-2.79c27.359-2.754,54.618-6.252,81.914-9.43c23.5-2.736,46.845-6.668,70.318-9.646
		c36.961-4.689,74.029-7.849,111.394-7.09c16.476,0.337,32.737,1.545,48.839,5.057c9.805,2.136,10.879,0.637,9.097-9.161
		c-2.384-13.102-4.418-26.266-6.498-39.418c-0.309-1.947-0.047-3.981-0.048-5.977c18.72,0.2,36.774,4.399,54.829,8.588
		c-0.737,23.088,2.92,45.944,4.008,68.946c0.761,16.137,2.303,32.282,3.427,48.434c1.929,27.747,4.543,55.451,6.613,83.191
		c1.479,19.835,2.312,39.719,3.83,59.551c2.688,35.102,5.951,70.16,8.443,105.274c1.648,23.23,3.341,46.452,5.188,69.67
		c2.929,36.816,4.423,73.75,7.714,110.534C512.791,583.374,510.997,598.069,516.217,611.965z"/>
	<path fill-rule="evenodd" clip-rule="evenodd" fill="#48509E" d="M24.402,634.426c0.313,0.435,0.522,0.907,0.629,1.432
		c-2.302,9.556,4.857,7.605,10.08,7.605c320.182,0.032,640.363-0.012,960.545,0.245c9.214,0.006,11.092-2.526,11.081-10.985
		c-0.249-190.518-0.224-381.038-0.055-571.556c0.006-7.193-1.822-12.699-7.968-16.721c-2.198-2.282-1.097-5.049-1.208-7.64
		c18.863,0.947,27.256,8.08,28.441,24.165c0.199,8.899,0.077,2.139,0.199,8.899c0.081,2.848,0.232,5.695,0.232,8.54
		c0.011,172.331,0.019,344.66,0,516.989c0,12.521-0.065,25.043-0.25,37.563c-0.122,8.447-5.065,13.711-12.747,16.777
		c-6.665,2.667-13.742,2.72-20.84,2.72c-315.586-0.026-631.174-0.011-946.76-0.108c-6.748,0-13.428,1.218-20.25,0.224
		C7.441,649.94,0.61,642.371,0.645,624.571c0.054-27.668,0.054-55.339,0.004-83.006C0.422,416.033,0.172,290.5-0.073,164.965
		c-0.062-31.667-0.178-63.334-0.184-95.002c-0.004-20.484,12.714-32.895,34.067-33.014c15.818-0.091,31.679-0.585,47.379,2.087
		c-16.172,3.207-32.665,3.466-49.018,4.994c-4.347,0.408-8.834,0.221-10.997,4.991c-5.778,1.513-3.177,6.107-3.24,9.284
		c-1.157,58.933,0.978,117.838,1.732,176.754c0.61,47.525-0.843,95.026,1.319,142.582c2.353,51.726-0.698,103.572,1.832,155.385
		c1.499,30.71,0.261,61.54,0.352,92.316C23.179,628.379,22.147,631.641,24.402,634.426z"/>
	<path fill-rule="evenodd" clip-rule="evenodd" fill="#AB827E" d="M516.217,611.965c-5.221-13.896-3.426-28.592-4.704-42.871
		c-3.291-36.784-4.785-73.718-7.714-110.534c-1.848-23.218-3.54-46.439-5.188-69.67c-2.492-35.114-5.755-70.173-8.443-105.274
		c-1.518-19.832-2.351-39.716-3.83-59.551c-2.07-27.74-4.684-55.444-6.613-83.191c-1.124-16.152-2.666-32.296-3.427-48.434
		c-1.088-23.002-4.745-45.858-4.008-68.946c14.698,3.915,28.373,9.595,38.736,21.009c0.105,47.597-0.801,95.223,0.568,142.785
		c1.799,62.395-0.117,124.807,1.707,187.166c2.032,69.51,0.576,139.02,1.759,208.524
		C515.223,592.643,515.821,602.301,516.217,611.965z"/>
	<path fill-rule="evenodd" clip-rule="evenodd" fill="#B48E75" d="M998.715,44.446c6.146,4.022,7.974,9.528,7.968,16.721
		c-0.169,190.518-0.194,381.039,0.055,571.556c0.011,8.459-1.867,10.991-11.081,10.985c-320.182-0.257-640.363-0.213-960.545-0.245
		c-5.223,0-12.382,1.95-10.08-7.605c27.939,0.674,55.712-1.96,83.515-3.999c9.353-0.689,18.704-1.382,28.054-2.07
		c2.479,2.33,5.584,1.299,8.403,1.299c117.329,0.036,234.662,0.019,351.992-0.044c2.838,0,5.913,0.979,8.481-1.15
		c7.3,3.488,14.571,4.365,21.789-0.211c2.762,2.538,6.184,1.334,9.279,1.339c107.854,0.075,215.708,0.078,323.565,0.039
		c2.544,0,5.287,0.788,7.704-1.223c-7.203,1.077-13.872-1.71-20.897-2.208c-18.995-1.348-38.036-2.817-56.854-5.549
		c-34.752-5.049-69.41-10.759-103.97-16.92c-5.274-0.939-12.017,1.46-16.063-4.293c29.606-3.208,59.238-1.877,88.892-0.66
		c43.419,1.79,86.764,4.472,130.042,8.349c32.441,2.908,64.947,5.15,97.395,7.99c5.868,0.511,5.475-2.766,5.504-6.229
		c0.101-11.978,0.13-23.954,0.17-35.93c0.089-25.668-0.693-51.367,0.438-76.99c2.193-49.581-0.06-99.202,1.819-148.743
		c1.815-47.88-0.095-95.776,1.741-143.606c1.911-49.875,0.71-99.745,1.603-149.607C997.699,51.771,998.34,48.109,998.715,44.446z"/>
	<path fill-rule="evenodd" clip-rule="evenodd" fill="#D9BBAB" d="M470.229,554.712c-14.688-15.571-31.299-24.594-50.103-30.146
		c-16.646-4.918-33.892-6.904-51.013-7.747c-34.901-1.712-69.555,2.222-104.268,5.966c-36.329,3.919-72.374,9.576-108.503,14.623
		c-23.406,3.271-46.905,5.973-70.266,9.588c-4.889,0.757-9.988,0.297-14.988,0.32c-13.236,0.062-13.079,0.05-12.672-12.574
		c0.131-4.088,1.221-5.656,5.77-6.585c13.038-2.669,26.273-1.096,39.39-2.874c28.35-3.839,56.895-6.309,85.333-9.545
		c21.468-2.441,42.977-4.7,64.324-7.933c30.7-4.647,61.723-5.413,92.578-8.147c17.896-1.584,35.714,1.326,53.557,2.261
		c10.231,0.537,20.095,3.575,30.066,5.86c13.316,3.047,24.042,10.312,34.259,18.512
		C472.482,533.341,470.669,543.059,470.229,554.712z"/>
	<path fill-rule="evenodd" clip-rule="evenodd" fill="#D9BBAB" d="M468.35,422.182c-5.04-4.423-8.952-8.15-13.178-11.512
		c-20.408-16.219-45.185-20.664-70.275-24.283c-20.2-2.916-40.56-2.262-60.773-1.465c-27.754,1.092-55.413,4.075-82.942,7.896
		c-29.816,4.134-59.641,8.229-89.448,12.438c-17.644,2.49-35.224,5.459-52.905,7.646c-11.315,1.399-22.769,1.729-34.153,2.612
		c-4.541,0.354-6.066-1.496-6.309-5.912c-0.79-14.5,0.811-16.199,16.412-16.375c32.565-0.372,64.823-4.065,97.067-8.204
		c26.38-3.391,52.997-5.198,79.275-9.151c31.05-4.667,62.389-5.268,93.553-8.123c17.015-1.559,33.983,1.381,50.97,2.249
		c11.127,0.569,21.939,3.045,32.71,5.982c12.827,3.499,23.47,10.31,33.442,18.371C470.746,401.586,469.014,411.325,468.35,422.182z"
		/>
	<path fill-rule="evenodd" clip-rule="evenodd" fill="#D9BBAB" d="M559.411,291.77c-3.799-23.95,5.289-31.219,32.977-43.545
		c15.518-6.911,32.804-8.056,49.834-9.161c10.238-0.663,20.421-2.34,30.729-1.603c35.315,2.522,70.658,4.115,105.938,7.823
		c35.488,3.731,70.579,10.01,106.148,13.289c24.758,2.284,49.614,3.299,74.324,6.006c10.857,1.19,5.119,8.913,6.068,13.767
		c1.106,5.633-3.518,5.217-7.469,5.369c-20.371,0.798-40.196-3.775-60.256-5.854c-25.269-2.617-50.257-7.35-75.594-9.815
		c-21.507-2.093-42.841-5.849-64.256-8.839c-7.229-1.009-14.439-2.273-21.709-2.832c-25.811-1.987-51.735-2.946-77.545-1.563
		c-29.425,1.577-58.392,6.288-83.227,23.558C569.977,282.12,565.274,286.803,559.411,291.77z"/>
	<path fill-rule="evenodd" clip-rule="evenodd" fill="#D9BBAB" d="M559.723,334.576c-5.072-22.481,7.745-31.501,24.469-39.742
		c19.654-9.684,41.343-12.224,63.125-12.818c40.833-1.115,81.259,3.128,121.733,8.134c40.576,5.021,81.003,11.315,121.689,15.236
		c17.709,1.707,35.447,4.954,53.404,3.911c5.384-0.312,10.46,1.424,15.692,1.614c8.903,0.325,5.058,6.66,5.634,10.706
		c0.682,4.79-0.625,8.098-6.895,8.416c-10.658,0.536-21.159-1.032-31.549-2.322c-31.285-3.893-62.328-9.803-93.677-12.994
		c-33.754-3.434-67.062-9.501-100.672-13.583c-10.094-1.224-20.433-1.663-30.647-2.346c-27.036-1.806-53.921-0.495-80.357,4.104
		c-21.737,3.777-42.473,11.465-57.94,28.27C562.783,332.194,561.581,333.007,559.723,334.576z"/>
	<path fill-rule="evenodd" clip-rule="evenodd" fill="#D9BBAB" d="M559.801,377.744c-5.335-22.207,9.807-31.481,28.284-40.407
		c14.929-7.205,31.377-9.223,47.67-10.646c14.575-1.271,29.257-3.259,43.925-1.854c32.886,3.146,65.925,3.751,98.813,7.717
		c28.994,3.498,57.755,8.612,86.889,11.168c28.838,2.535,57.477,7.022,86.577,7.078c5.136,0.008,14.448-2.064,13.782,9.187
		c-0.654,10.984-0.024,10.984-11.708,11.007c-24.695,0.04-48.789-5.218-73.2-7.688c-20.628-2.088-40.856-6.703-61.669-8.041
		c-17.135-1.104-34.159-4.392-51.125-7.3c-39.248-6.733-78.867-7.231-118.43-5.703c-22.835,0.88-45.258,5.828-65.818,16.624
		C574.917,363.542,567.641,370.034,559.801,377.744z"/>
	<path fill-rule="evenodd" clip-rule="evenodd" fill="#D9BBAB" d="M559.689,551.691c-3.431-14.463,2.063-23.925,13.804-31.675
		c16.057-10.6,33.705-15.445,52.708-17.344c14.282-1.431,28.586-4.023,42.891-3.106c37.656,2.407,75.329,4.122,112.828,9.331
		c24.851,3.446,49.789,6.89,74.809,9.508c32.894,3.446,65.601,8.648,98.826,8.428c10.509-0.069,7.746,7.57,8.353,13.473
		c0.706,6.82-3.283,7.197-8.661,7.082c-28.198-0.592-55.816-5.765-83.64-9.424c-30.712-4.038-61.193-9.443-91.968-13.158
		c-24.381-2.938-48.757-6.219-73.23-7.808c-18.388-1.191-36.991-1.771-55.486,0.757c-8.961,1.225-18.005,0.943-27.038,2.947
		C582.572,529.869,580.662,534.801,559.689,551.691z"/>
	<path fill-rule="evenodd" clip-rule="evenodd" fill="#D9BBAB" d="M559.899,160.623c-3.683-15.554,2.089-24.831,13.674-32.773
		c18.561-12.722,39.774-15.923,61.336-18.853c16.097-2.188,32.278-2.2,48.401-1.548c33.043,1.33,66.043,3.048,98.844,7.985
		c29.456,4.436,59.178,7.206,88.777,10.752c28.196,3.379,56.365,7.005,84.871,6.922c3.481-0.015,8.118,0.39,9.163,3.73
		c1.495,4.792,1.671,10.298-0.249,15.118c-1.059,2.666-4.742,1.629-7.28,1.558c-18.759-0.547-37.206-3.861-55.805-5.856
		c-29.36-3.151-58.239-9.34-87.777-11.544c-21.815-1.629-43.486-5.469-65.1-9.035c-8.725-1.438-17.527-1.468-26.217-2.22
		c-33.634-2.909-67.45-3.07-100.703,3.377C598.544,132.75,576.817,141.396,559.899,160.623z"/>
	<path fill-rule="evenodd" clip-rule="evenodd" fill="#D9BBAB" d="M469.63,508.484c-15.125-15.427-33.655-24.134-54.286-28.824
		c-15.97-3.628-32.402-4.356-48.614-6.389c-20.999-2.632-41.687-0.161-62.345,0.875c-27.085,1.36-54.046,5.464-80.992,8.887
		c-26.938,3.417-53.78,7.554-80.693,11.178c-21.412,2.88-42.861,5.489-64.301,8.159c-2.615,0.326-5.275,0.394-7.916,0.417
		c-11.528,0.104-15.26-4.884-11.94-15.645c0.59-1.91,1.621-2.804,3.539-3.197c3.725-0.764,7.336-1.772,11.26-1.738
		c26.134,0.231,51.903-3.736,77.766-6.6c26.426-2.924,52.857-5.811,79.272-8.818c23.795-2.709,47.506-6.56,71.378-8.085
		c28.346-1.807,56.714-3.649,85.284-0.888c17.361,1.679,34.075,4.367,50.543,9.958c12.843,4.354,22.261,12.615,30.756,22.1
		C473.014,495.09,469.744,501.905,469.63,508.484z"/>
	<path fill-rule="evenodd" clip-rule="evenodd" fill="#D9BBAB" d="M559.614,421.706c-4.888-21.089,9.355-29.818,23.956-37.726
		c15.349-8.316,32.487-10.994,49.75-13.05c17.873-2.13,35.854-2.537,53.699-1.468c34.749,2.088,69.542,3.18,104.185,7.753
		c30.393,4.01,60.664,9.035,91.373,11.346c25.054,1.886,50.176,3.628,75.183,6.299c11.734,1.254,4.583,10.204,5.833,15.513
		c1.338,5.684-3.781,5.082-7.594,5.13c-18.56,0.231-36.664-3.716-54.947-5.845c-31.919-3.715-63.425-10.297-95.499-13.146
		c-11.038-0.984-22.044-2.836-32.902-5.049c-17.3-3.521-34.837-3.922-52.328-5.457c-20.325-1.781-40.637-2.062-60.795-0.986
		c-29.639,1.577-59.103,5.689-84.132,23.442C570.029,412.27,565.287,416.907,559.614,421.706z"/>
	<path fill-rule="evenodd" clip-rule="evenodd" fill="#D9BBAB" d="M465.462,358.971c0,5.691,0,11.385,0,16.953
		c-1,1.249-2.755-0.633-3.829-1.747c-17.147-17.782-39.03-24.9-62.933-28.91c-28.307-4.742-56.729-4.484-85.112-3.024
		c-33.249,1.704-66.23,5.972-99.244,10.827c-27.431,4.028-54.781,8.6-82.459,11.32c-21.521,2.114-42.845,5.971-64.54,6.529
		c-3.696,0.091-9.432,1.746-8.714-4.912c0.572-5.302-4.361-13.146,6.47-14.71c3.822-0.552,7.579-0.786,11.381-0.842
		c26.693-0.394,53.16-3.082,79.608-6.518c26.373-3.427,52.981-5.266,79.271-9.168c24.325-3.605,48.815-5.855,73.239-7.699
		c29.424-2.221,59.009-3.948,88.662,0.619c18.167,2.797,35.849,5.546,51.524,15.569c6.896,4.407,12.054,9.784,17.447,15.756
		L465.462,358.971z"/>
	<path fill-rule="evenodd" clip-rule="evenodd" fill="#D9BBAB" d="M559.75,248.106c-4.167-23.836,3.826-31.538,29.34-42.665
		c18.761-8.179,39.231-11.115,60.103-10.921c25.867,0.238,51.779-0.464,77.546,1.978c22.39,2.123,44.67,5.29,67.001,8.02
		c24.363,2.975,48.696,6.202,73.092,8.907c29.083,3.225,58.058,7.513,87.501,7.13c10.403-0.137,14.845,7.997,11.053,17.569
		c-1.516,3.83-4.783,2.748-7.47,2.689c-18.767-0.415-37.245-3.472-55.813-5.775c-28.989-3.598-57.635-9.34-86.871-11.58
		c-20.937-1.605-41.622-6.077-62.495-8.661c-38.157-4.735-76.285-7.386-114.781-1.917c-14.371,2.042-28.189,4.899-41.665,9.828
		C582.327,227.813,570.486,235.956,559.75,248.106z"/>
	<path fill-rule="evenodd" clip-rule="evenodd" fill="#D9BBAB" d="M468.333,467.21c-25.902-26.819-57.791-33.731-92.014-36.611
		c-34.195-2.877-67.892,0.333-101.728,3.598c-41.35,3.987-82.217,11.2-123.326,16.757c-27.771,3.756-55.49,8.893-83.707,8.989
		c-3.635,0.012-9.101,1.985-9.017-4.746c0.068-5.518-2.529-12.193,7.23-13.363c11.959-1.438,23.959-0.575,35.985-2.087
		c24.34-3.062,48.84-4.884,73.159-8.378c24.295-3.489,48.841-5.409,73.071-9.241c24.3-3.85,48.818-6.006,73.237-7.699
		c24.52-1.703,49.307-1.647,74.035,0.555c14.5,1.29,28.3,3.914,41.88,8.784c9.618,3.452,17.464,9.318,25.078,15.544
		C470.873,446.388,468.954,456.013,468.333,467.21z"/>
	<path fill-rule="evenodd" clip-rule="evenodd" fill="#D9BBAB" d="M559.825,510.025c-3.775-22.816,1.781-29.034,26.66-41.769
		c17.199-8.805,36.444-10.628,55.457-11.492c19.4-0.884,38.936-1.088,58.313,0.026c29.766,1.707,59.468,4.444,88.961,9.209
		c19.884,3.213,39.977,5.229,59.994,7.681c17.976,2.201,35.923,4.867,53.975,6.198c13.429,0.988,26.828,3.121,40.39,2.427
		c3.519-0.182,7.107-0.236,10.587,0.211c8.684,1.12,13.473,10.821,9.213,18.214c-1.691,2.937-4.587,1.899-7.082,2.063
		c-14.788,0.957-29.137-2.647-43.623-4.405c-30.449-3.693-60.884-7.756-91.088-12.967c-23.065-3.977-46.299-6.702-69.489-9.225
		c-34.644-3.767-69.448-6.528-104.479-2.796c-18.52,1.973-36.482,5.207-53.676,12.141
		C581.019,490.755,569.867,498.44,559.825,510.025z"/>
	<path fill-rule="evenodd" clip-rule="evenodd" fill="#D9BBAB" d="M559.706,202.489c-3.199-13.894,1.443-23.391,12.921-31.063
		c16.997-11.358,35.923-15.686,56-18.082c21.455-2.557,42.922-1.908,64.306-1.223c22.459,0.718,44.925,2.467,67.243,6.001
		c24.221,3.831,48.708,6.053,73.056,9.142c20.571,2.612,41.045,6.084,61.675,8.038c19.519,1.854,39.009,4.72,58.74,3.962
		c13.203-0.502,12.31,3.162,11.827,15.068c-0.174,4.254-3.657,3.643-6.538,3.747c-15.911,0.587-31.526-2.066-47.232-3.905
		c-29.884-3.501-59.411-9.248-89.47-11.844c-25-2.161-49.751-6.967-74.653-10.303c-32.585-4.365-65.202-6.422-98.168-3.447
		c-15.556,1.406-30.755,3.438-45.71,7.758c-15.568,4.504-28.942,12.344-40.396,23.41
		C562.34,200.684,561.155,201.398,559.706,202.489z"/>
	<path fill-rule="evenodd" clip-rule="evenodd" fill="#D9BBAB" d="M559.721,115.179c-4.958-20.822,7.75-29.593,24.418-37.735
		c19.664-9.61,41.286-12.072,63.118-12.969c29.719-1.222,59.29,1.311,88.79,3.752c23.838,1.97,47.463,6.28,71.211,9.354
		c24.624,3.188,49.239,6.509,73.933,9.094c25.87,2.709,51.812,4.88,77.764,6.738c11.326,0.811,5.549,8.562,6.489,13.349
		c1.222,6.217-3.763,5.651-7.977,5.732c-17.987,0.331-35.405-4.099-53.146-5.86c-33.425-3.323-66.12-11.426-99.849-13.369
		c-20.614-1.188-40.964-6.254-61.525-8.899c-35.812-4.606-71.611-6.76-107.73-1.636c-22.117,3.139-43.264,7.715-61.476,20.905
		C569.07,107.018,564.829,110.946,559.721,115.179z"/>
	<path fill-rule="evenodd" clip-rule="evenodd" fill="#D9BBAB" d="M559.916,464.632c-5.686-21.307,8.573-29.81,23.042-37.458
		c13.777-7.279,29.086-9.922,44.634-11.838c22.011-2.719,44.119-2.314,66.042-1.227c26.817,1.334,53.653,3.311,80.289,7.523
		c27.964,4.427,56.164,7.485,84.283,10.961c23.765,2.937,47.543,5.832,71.367,8.281c8.16,0.841,16.492-0.009,24.715,0.424
		c8.518,0.442,13.196,9.405,9.096,16.632c-1.476,2.601-3.952,1.954-6.198,2.068c-10.311,0.533-20.494-0.579-30.685-1.998
		c-32.674-4.549-65.404-8.727-98.038-13.538c-25.991-3.831-52.005-7.905-78.049-10.91c-33.386-3.851-67.011-6.49-100.899-3.131
		c-15.841,1.564-31.256,3.776-46.51,8.086C586.241,443.247,572.593,452.633,559.916,464.632z"/>
	<path fill-rule="evenodd" clip-rule="evenodd" fill="#855553" d="M670.03,600.868c4.046,5.753,10.789,3.354,16.063,4.293
		c34.56,6.161,69.217,11.871,103.97,16.92c18.819,2.731,37.86,4.201,56.854,5.549c7.025,0.498,13.695,3.285,20.897,2.208
		c-2.417,2.011-5.16,1.223-7.704,1.223c-107.856,0.039-215.711,0.036-323.565-0.039c-3.096-0.005-6.517,1.199-9.279-1.339
		c26.229-12.905,54.394-19.566,83.205-24.052c16.257-2.531,32.625-4.167,49.096-4.69c2.44,1.459,4.878,1.627,7.315-0.009
		C667.933,600.91,668.979,600.889,670.03,600.868z"/>
	<path fill-rule="evenodd" clip-rule="evenodd" fill="#855553" d="M505.477,629.893c-2.568,2.13-5.643,1.15-8.481,1.15
		c-117.33,0.063-234.664,0.08-351.992,0.044c-2.819,0-5.924,1.031-8.403-1.299c61.058-6.04,122.191-11.329,183.124-18.583
		C383.043,603.671,445.142,608.906,505.477,629.893z"/>
	<path fill-rule="evenodd" clip-rule="evenodd" fill="#50579D" d="M24.402,634.426c-2.255-2.785-1.223-6.047-1.232-9.084
		c-0.091-30.776,1.147-61.606-0.352-92.316c-2.53-51.813,0.521-103.659-1.832-155.385c-2.162-47.556-0.709-95.057-1.319-142.582
		c-0.755-58.916-2.889-117.821-1.732-176.754c0.063-3.177-2.538-7.771,3.24-9.284c2.16,12.733,0.952,25.572,1.011,38.345
		c0.363,78.377-0.579,156.769,0.796,235.13c1.735,98.864,0.593,197.733,1.865,296.594C24.913,624.202,24.56,629.316,24.402,634.426z
		"/>
	<path fill-rule="evenodd" clip-rule="evenodd" fill="#B48E75" d="M666.882,600.931c-2.438,1.636-4.875,1.468-7.315,0.009
		C662.004,600.184,664.441,600.271,666.882,600.931z"/>
</g>
</svg>
